<svg xmlns="http://www.w3.org/2000/svg" width="600" height="128" viewBox="0 0 600 128"><path fill="#f2f2f2" d="M299.56.005a37.53 37.53 0 00-4.06.162 29.617 29.617 0 00-3.632.616l-.656-.006v.168c-8.114 2.089-15.739 7.645-17.396 16.143-1.818 7.61 1.284 15.681 7.132 20.71 2.876 2.805 6.265 4.759 9.906 6.157l-.088 10.862c-6.863-3.146-15.471-2.667-22.053.931-9.292 5.054-13.887 17.113-10.014 27.021 3.727 10.975 14.318 18.152 25.351 20.344 2.058.459 4.156.804 6.274 1.038-.03 3.067-.057 6.135-.089 9.203-.212 3.753-3.843 10.456-8.207 7.734-2.858-2.461-7.688-7.135-10.984-2.708-1.51 2.046-.648 2.304-1.279 4.84 2.71 5.131 7.273 4.81 12.201 4.756 8.09-.229 14.098-8.149 13.736-15.911l.065-7.571c13.64.23 27.493-4.293 36.844-14.463 8.521-8.927 10.834-24.147 2.81-34.133-7.764-9.607-19.72-12.158-31.49-13.63-2.615-.219-5.181-.83-7.622-1.783l.302-36.453c3.558-.205 7.121.614 10.335 2.773 4.81 3.391-2.139 11.055 4.202 12.98 5.468.73 4.098-7.658 3.824-11.063-1.785-6.686-8.97-8.61-15.41-8.717zM84.96 2.883c-2.246.014-3.903 3.007-4.447 2.992C73.823 3.733 65.9 4.74 60.872 9.983c-5.188 4.395-6.685 12.385-3.368 18.099 1.989 4.182 7.265 6.096 11.348 7.685-12.235 1.99-24.89 5.653-34.4 13.964-8.454 7.54-11.925 20.01-10.046 30.641 1.943 11.61 13.057 21.131 24.19 24.503 12.215 3.796 26.03 3.435 37.69-2.036 9.043-4.827 17.682-12.69 19.618-23.179 1.597-9.786-5.883-18.25-13.916-22.653-9.42-5.276-21.102-3.904-30.55.555-4.347 2.064-9.932 2.376-13.064 6.397-3.997 5.3 5.08 9.987 8.262 4.835 5.48-6.707 14.405-9.81 22.886-9.606 8.433.494 14.11 5.104 17.56 12.867 2.73 7.371-1.665 14.973-6.977 19.602-5.653 5.39-11.462 8.901-19.214 9.463-11.324 1.05-24.224-.354-32.528-8.96-7.834-8.27-8.753-21.292-4.905-31.594 4.254-9.163 14.353-13.25 23.333-16.275 9.176-2.725 18.828-4.201 28.395-3.977 4.71.517 9.506 2.419 14.24 1.39 5.82-4.366-3.206-8.004-7.279-7.02-4.592-.105-9.219-.002-13.626-1.54-5.296-1.544-10.998-3.28-14.94-7.321-3.186-4.56-2.182-12.32 2.799-14.744 5.013-3.113 12.348-.592 17.228 2.17l3.241 10.882c3.15-.943 6.724-2.596 7.08-6.333 1.575-6.434-7.272-7.004-6.286-13.035l-.445-.803-.597-.536c-.574-.388-1.123-.543-1.642-.54zm206.21 2.24c-.094 10.85-.184 21.7-.272 32.55a28.713 28.713 0 01-8.298-8.429c-4.442-6.86-3.693-18.116 3.798-21.894a24.734 24.734 0 014.772-2.227zM45.49 11.918a2.239 2.239 0 00-2.239 2.238 2.239 2.239 0 002.239 2.24 2.239 2.239 0 002.24-2.24 2.239 2.239 0 00-2.24-2.238zm0 11.514a2.239 2.239 0 00-2.239 2.24 2.239 2.239 0 002.239 2.238 2.239 2.239 0 002.24-2.238 2.239 2.239 0 00-2.24-2.24zm71.929 15.86c-.438 0-.875.188-1.313.563-.417.354-.813.813-1.188 1.375a11.271 11.271 0 00-1 1.782 13.705 13.705 0 00-.688 1.75c-.167.584-.344 1.25-.532 2.001-.166.73-.344 1.51-.531 2.344-.188.813-.376 1.637-.563 2.47-.167.834-.322 1.636-.468 2.407-.167.917-.345 1.95-.533 3.096a195.288 195.288 0 00-.562 3.594 178.352 178.352 0 00-.532 3.907 323.9 323.9 0 00-.468 3.876 137.48 137.48 0 00-.313 3.659 44.635 44.635 0 00-.125 3.157c0 2.313.23 4.24.688 5.783.48 1.521 1.083 2.75 1.813 3.688.73.917 1.532 1.574 2.407 1.97.896.375 1.761.563 2.595.563 1.896 0 4.043-.604 6.44-1.813 2.417-1.23 5.21-3.054 8.377-5.471a33.95 33.95 0 001.266-1.004c.393 2.077 1.178 3.8 2.36 5.162 1.772 2.042 4.439 3.063 8.002 3.063h.22c1.542 0 3.167-.333 4.876-1 1.71-.667 3.44-1.542 5.19-2.626a44.98 44.98 0 005.157-3.814 66.003 66.003 0 004.815-4.47 63.138 63.138 0 004.126-4.658c.047-.057.09-.112.135-.17-.105.741-.205 1.469-.29 2.17-.25 2.251-.376 3.929-.376 5.033 0 4.169.917 6.45 2.751 6.847.542-.167 1.167-.552 1.876-1.156s1.427-1.303 2.157-2.095a42.7 42.7 0 002.188-2.502 50.705 50.705 0 001.844-2.406c1.063-1.5 1.991-2.793 2.783-3.877.792-1.084 1.49-2 2.094-2.75a27.704 27.704 0 011.626-1.814c.459-.458.876-.812 1.25-1.062.397-.25.772-.418 1.126-.501a4.891 4.891 0 011.125-.125c.5 0 .907.177 1.22.532.312.333.573.823.781 1.469.23.625.427 1.407.593 2.345.167.917.345 1.959.533 3.126.146.938.322 1.885.53 2.844.23.959.49 1.865.782 2.72a16.24 16.24 0 001.063 2.345c.417.688.896 1.25 1.438 1.688 1.084.875 2.49 1.313 4.22 1.313.896 0 1.72-.094 2.47-.281.75-.188 1.47-.438 2.157-.75a15.07 15.07 0 002.032-1.126 121.24 121.24 0 002.157-1.407 34.423 34.423 0 002.876-2.157c.708-.587 1.4-1.204 2.075-1.846-.12.496-.218.977-.294 1.44-.125.896-.187 1.75-.187 2.563a6.775 6.775 0 001.5 4.251c.48.563 1.021 1.011 1.626 1.345.625.333 1.272.5 1.939.5 1 0 2.147-.323 3.439-.969 1.313-.667 2.636-1.522 3.97-2.564a36.607 36.607 0 003.907-3.564c1.27-1.313 2.365-2.635 3.282-3.969.271 1.438.615 2.802 1.032 4.094.437 1.292.979 2.429 1.625 3.408.667.959 1.449 1.72 2.345 2.282.917.563 2 .844 3.25.844.96 0 1.887-.177 2.783-.531.896-.354 1.72-.802 2.47-1.344a13.555 13.555 0 002.063-1.845c.625-.688 1.126-1.354 1.5-2 .293-.438.5-.866.625-1.282.146-.438.22-.823.22-1.156 0-.25-.125-.49-.375-.72-.23-.229-.49-.343-.782-.343-.167 0-.334.114-.5.343-.167.23-.365.49-.595.782-.792 1.063-1.698 1.865-2.72 2.407-1 .542-2.291.813-3.875.813a4.095 4.095 0 01-1.907-.47c-.584-.312-1.095-.875-1.532-1.687-.438-.834-.782-1.96-1.032-3.376-.25-1.417-.374-3.241-.374-5.471 0-.792.073-1.668.218-2.627.146-.958.302-1.875.469-2.75.187-.896.355-1.677.5-2.344.147-.667.219-1.105.219-1.313 0-.417-.052-.72-.156-.907a1.556 1.556 0 00-.344-.531c-.125-.146-.26-.303-.406-.47-.125-.187-.23-.468-.313-.843a3.579 3.579 0 00-.438-.97 4.238 4.238 0 00-.718-.874c-.271-.271-.553-.49-.845-.657-.292-.167-.563-.25-.813-.25-.166 0-.333.041-.5.125a6.058 6.058 0 00-.5.281l-.5.25c-.166.063-.334.094-.5.094s-.376-.03-.626-.094c-.229-.083-.478-.166-.75-.25-.25-.104-.5-.198-.75-.281a1.847 1.847 0 00-.625-.125c-.667 0-1.542.323-2.625.97-1.063.624-2.189 1.49-3.377 2.594-1.188 1.083-2.355 2.355-3.501 3.813a27.534 27.534 0 00-2.28 3.334c-.126.14-.247.268-.377.418-.542.646-1.105 1.322-1.689 2.031a19.334 19.334 0 01-1.563 1.72 81.97 81.97 0 01-3.594 3.282 38.131 38.131 0 01-3.345 2.626c-1.084.729-2.116 1.302-3.095 1.719-.98.417-1.918.625-2.814.625-1.167 0-2.063-.281-2.688-.844-.626-.562-1.105-1.292-1.439-2.188-.333-.917-.562-1.948-.687-3.094-.104-1.146-.219-2.304-.344-3.47a35.247 35.247 0 00-.594-3.783c-.23-1.147-.562-2.125-1-2.938-.438-.834-1.02-1.48-1.75-1.939-.709-.479-1.606-.719-2.69-.719-1.02 0-1.958.177-2.813.532a9.271 9.271 0 00-2.376 1.406c-.75.584-1.48 1.272-2.188 2.064a57.99 57.99 0 00-2.094 2.563 194.335 194.335 0 01-2.689 3.376 661.71 661.71 0 01-2.25 2.813c-1.334 1.688-2.293 2.564-2.877 2.626a3.835 3.835 0 01-.188-1.157c0-.541.042-1.145.126-1.812.104-.688.219-1.386.344-2.094.146-.709.292-1.407.437-2.095.167-.687.314-1.313.439-1.876.166-.688.332-1.292.499-1.813.167-.542.323-1.042.47-1.5.145-.459.26-.907.343-1.344.084-.438.125-.907.125-1.407 0-.813-.136-1.45-.406-1.908-.25-.458-.542-.687-.876-.687-.27 0-.542.02-.813.062-.25.02-.5.095-.75.22-.23.104-.459.28-.688.53-.23.23-.448.553-.656.97a21.05 21.05 0 00-1.157 2.938c-.266.887-.505 1.81-.726 2.757l-1.493 1.494a71.55 71.55 0 01-1.313 1.282l-1.126 1.126c-.562.542-1.166 1.114-1.813 1.719-.625.604-1.26 1.209-1.906 1.813a67.45 67.45 0 01-1.845 1.72 35.77 35.77 0 01-1.658 1.407 121.798 121.798 0 01-3.125 2.344 23.182 23.182 0 01-3.439 2c-2.5 1.167-4.856 1.75-7.065 1.75-3.98 0-6.054-1.864-6.22-5.595.646-.52 1.302-1.052 1.969-1.594s1.313-1.062 1.938-1.563c.625-.5 1.208-.98 1.75-1.438a34.011 34.011 0 001.407-1.25 93.3 93.3 0 003.158-3.064 21.02 21.02 0 002.313-2.845 12.375 12.375 0 001.438-2.876c.333-1 .5-2.104.5-3.313 0-.917-.135-1.72-.406-2.407-.271-.688-.699-1.407-1.282-2.157a3.327 3.327 0 00-.688-.625 3.283 3.283 0 00-.812-.5 4.52 4.52 0 00-.814-.344 2.351 2.351 0 00-.656-.125c-1.125 0-2.324.311-3.595.937-1.272.604-2.48 1.48-3.626 2.626-1.521 1.563-2.782 3.188-3.783 4.877a28.008 28.008 0 00-2.344 5.032 27.408 27.408 0 00-1.188 4.94 33.843 33.843 0 00-.332 4.057c-.172.146-.352.293-.543.444a98.571 98.571 0 01-4.064 3.002 37.298 37.298 0 01-3.438 2.095c-1.042.562-2.022.979-2.939 1.25a9.364 9.364 0 01-2.657.406 4.59 4.59 0 01-1.563-.281c-.521-.209-.99-.604-1.407-1.188-.416-.583-.76-1.386-1.032-2.408-.25-1.042-.374-2.397-.374-4.064 0-.792.02-1.656.062-2.594.042-.938.094-1.896.156-2.876.084-.98.168-1.959.25-2.938.105-1 .208-1.94.313-2.815a45.906 45.906 0 01.688-4.25c.312-1.251.709-2.678 1.188-4.283.48-1.605.947-3.2 1.406-4.783.48-1.584.886-3.074 1.22-4.47.333-1.417.5-2.553.5-3.408 0-.375-.032-.719-.094-1.032a1.747 1.747 0 00-.312-.812 1.529 1.529 0 00-.688-.563c-.292-.125-.677-.187-1.157-.187zm178.84 6.328c3.598.873 7.308 1.384 10.918 1.766 9.456 1.891 18.639 5.256 24.114 13.811 5.154 9.029 1.165 20.43-6.443 26.907-8.255 7.408-18.535 10.895-29.04 10.868l.173-20.235c4.232-5.517 5.997-13.827 1.018-19.44a18.647 18.647 0 00-.846-.851l.107-12.826zm230.78 6.558v.003c-1.125 0-2.324.312-3.596.937-1.271.604-2.48 1.48-3.626 2.626-1.521 1.563-2.782 3.188-3.782 4.876a28.004 28.004 0 00-2.345 5.034 27.398 27.398 0 00-1.188 4.938 34.459 34.459 0 00-.325 3.68l-.331.166A31.166 31.166 0 01508.719 76c-.959.396-1.875.72-2.75.97-.876.229-1.72.395-2.533.5-.792.104-1.574.155-2.345.155-1.23 0-2.218-.677-2.969-2.032s-1.448-3.407-2.094-6.158c-.396-1.688-.73-3.168-1.001-4.44-.25-1.27-.552-2.323-.906-3.157-.334-.854-.761-1.49-1.282-1.906-.521-.438-1.25-.657-2.188-.657-.896 0-1.751.281-2.564.844a11.44 11.44 0 00-2.282 2.126 24.413 24.413 0 00-1.937 2.72 63.942 63.942 0 00-1.595 2.656l-.688 1.282c-.27.542-.574 1.137-.907 1.783-.333.625-.687 1.27-1.062 1.937a23.255 23.255 0 01-1.063 1.814 8.97 8.97 0 01-1 1.312c-.313.334-.585.5-.814.5-.292 0-.551-.374-.78-1.125a36.9 36.9 0 01-.626-2.844 701.542 701.542 0 01-.594-3.627 72.872 72.872 0 00-.594-3.532 18.394 18.394 0 00-.47-1.845 8.282 8.282 0 00-.686-1.625 3.82 3.82 0 00-.97-1.157 2.077 2.077 0 00-1.312-.438c-2.022 0-3.908.99-5.66 2.97-.874 1-1.822 2.21-2.843 3.627-1 1.396-2.085 3.01-3.252 4.845a98.177 98.177 0 01-1.687 2.657 94.854 94.854 0 01-1.532 2.345 28.86 28.86 0 01-1.344 1.844c-.396.521-.73.917-1 1.188 0-.208.031-.531.092-.969.062-.458.136-.969.219-1.532.104-.583.208-1.188.313-1.813.104-.646.208-1.25.313-1.813.187-.938.384-1.886.592-2.845.209-.98.396-1.939.563-2.876.188-.96.334-1.875.438-2.75.125-.876.187-1.689.187-2.44 0-2.854-1.04-4.282-3.124-4.282-.521 0-.929.177-1.22.532-.292.333-.437.75-.437 1.25 0 1.313-.105 2.699-.313 4.158-.05.341-.103.694-.16 1.054-.06.047-.121.102-.183.165-1.501 1.521-2.95 2.959-4.346 4.313a111.273 111.273 0 01-4.064 3.814c-2.667 2.355-4.71 3.533-6.127 3.533-1.292 0-2.46-.646-3.501-1.938a16.824 16.824 0 01-1.376-1.97 21.33 21.33 0 01-1-2.094 96.73 96.73 0 01-.938-2.377c-.313-.896-.646-1.885-1-2.969a33.21 33.21 0 00-.907-2.344c-.271-.667-.542-1.21-.813-1.626-.5-.855-1.376-1.282-2.626-1.282-1.355 0-2.73.782-4.127 2.345-1.354 1.459-2.77 3.46-4.25 6.002-.126.208-.366.615-.72 1.22-.334.604-.698 1.25-1.094 1.937s-.76 1.323-1.094 1.907l-.625 1.094c-.938 1.647-1.605 2.47-2.001 2.47-.271 0-.541-1.449-.812-4.345a67.182 67.182 0 00-.532-4.189 58.178 58.178 0 00-.656-3.752c-.48-2.355-1.282-3.96-2.408-4.814-.23-.166-.573-.25-1.031-.25-2.022 0-3.908.99-5.659 2.97-.875 1-1.813 2.209-2.813 3.626-1 1.396-2.095 3.011-3.283 4.845-1.146 1.834-2.146 3.335-3 4.502-.855 1.167-1.564 2.022-2.127 2.564 0-.813.188-2.366.563-4.658.188-.938.375-1.917.563-2.938.208-1.022.396-2.033.563-3.033.187-1.021.333-1.991.437-2.908a23.12 23.12 0 00.157-2.532c0-2.855-1.042-4.282-3.126-4.282-.521 0-.928.176-1.22.53-.291.334-.437.751-.437 1.251v.06c-.426.123-.944.275-1.593.472-.688.188-1.439.396-2.251.625-.792.23-1.553.449-2.282.657-.709.188-1.334.353-1.876.5-.542.145-.886.24-1.032.28-.542.105-1.136.199-1.782.282-.646.083-1.302.157-1.969.22a64.491 64.491 0 01-3.783.124c-.5 0-1.073-.25-1.719-.75a44.517 44.517 0 01-1.907-1.689 32.395 32.395 0 00-1.813-1.687c-.583-.521-1.074-.782-1.47-.782a2.66 2.66 0 00-.844.125c-.25.084-.458.125-.625.125a.307.307 0 01-.281-.156 5.128 5.128 0 01-.437-.563 3.495 3.495 0 00-.437-.531 1.632 1.632 0 00-.564-.406c-.208-.105-.49-.156-.844-.156-1.062 0-2.125.27-3.188.811-1.063.542-2.084 1.261-3.064 2.157a25.052 25.052 0 00-2.812 3.065 34.831 34.831 0 00-2.44 3.47 35.813 35.813 0 00-1.905 3.438c-.542 1.126-.96 2.126-1.251 3.001-.104.313-.21.688-.313 1.126s-.208.896-.312 1.375c-.083.48-.156.949-.219 1.407-.042.459-.062.845-.062 1.157 0 1.209.114 2.365.344 3.47.25 1.104.604 2.084 1.063 2.938.458.834 1.02 1.501 1.687 2.001s1.428.75 2.283.75c1.355 0 2.656-.104 3.907-.312a17.146 17.146 0 003.782-1.157 24.99 24.99 0 003.095-1.626 18.505 18.505 0 002.407-1.781 14.094 14.094 0 001.939-2.095 23.782 23.782 0 001.686-2.5c.209-.334.408-.751.595-1.252.188-.52.354-1.052.5-1.594.167-.562.291-1.115.375-1.657.104-.541.157-1 .157-1.375 0-.855-.073-1.678-.22-2.47a44.606 44.606 0 00-.5-2.407c.187.167.48.334.876.5a19.546 19.546 0 002.657.72c.438.083.782.125 1.032.125.625 0 1.396-.032 2.313-.094a72.674 72.674 0 002.813-.313c.959-.125 1.877-.27 2.752-.438.896-.187 1.615-.396 2.156-.625.292-.125.657-.312 1.094-.562.459-.271.939-.574 1.44-.907.5-.354 1-.73 1.5-1.126.396-.33.749-.66 1.08-.99-.119.87-.265 1.846-.456 2.991-.167.98-.448 2.48-.844 4.502a342.082 342.082 0 00-.5 2.782 109.7 109.7 0 00-.313 2.157c-.083.625-.145 1.261-.187 1.907a30.36 30.36 0 00-.062 1.97c0 1.938.24 3.772.72 5.502.5 1.625 1.542 2.438 3.125 2.438.855 0 1.584-.438 2.188-1.313.313-.438.667-.969 1.063-1.594.417-.646.865-1.407 1.345-2.282.312-.521.615-1.032.906-1.532.292-.5.594-1.021.907-1.563 1-1.688 2.042-3.376 3.125-5.064a50.903 50.903 0 013.815-5.128c1.417-1.688 2.49-2.553 3.22-2.594.791.75 1.23 1.761 1.313 3.033.042.625.083 1.5.125 2.625.042 1.105.083 2.47.124 4.096.104 3.23.386 5.533.844 6.908.5 1.355 1.47 2.032 2.908 2.032.959 0 2.022-.771 3.189-2.313 1.167-1.563 2.594-3.856 4.282-6.878 1.71-3 3.105-5.262 4.19-6.783 1.083-1.522 2.063-2.282 2.938-2.282.604 0 1.323.98 2.157 2.938.438 1 .865 1.97 1.282 2.907.416.938.823 1.876 1.22 2.814a25.796 25.796 0 002.812 4.939c1.084 1.438 2.302 2.157 3.657 2.157 1.021 0 2.335-.427 3.94-1.282a33.77 33.77 0 002.188-1.312 22.851 22.851 0 001.813-1.376 40.773 40.773 0 004.408-4.314c1.21-1.371 2.438-2.929 3.679-4.65a305.2 305.2 0 01-.46 2.462 136.74 136.74 0 00-.469 2.876 69.482 69.482 0 00-.312 2.845 30.212 30.212 0 00-.125 2.656c0 .5.01.95.031 1.346.042.375.083.729.125 1.062.062.334.135.667.219 1 .083.333.187.709.312 1.125.5 1.626 1.542 2.439 3.126 2.439.855 0 1.584-.438 2.189-1.313.27-.375.584-.854.938-1.438a47.85 47.85 0 001.125-1.844c.396-.667.782-1.324 1.157-1.97l1-1.72c.584-1 1.24-2.104 1.97-3.313a63.56 63.56 0 012.407-3.595 35.831 35.831 0 012.718-3.345c.98-1.042 2.001-1.886 3.064-2.532.271.25.532.605.782 1.063.27.438.5 1 .687 1.688.188.688.345 1.521.47 2.5.125.96.199 2.075.22 3.346.104 3.23.385 5.533.843 6.909.5 1.354 1.47 2.031 2.907 2.031.959 0 2.02-.781 3.188-2.344 1.167-1.563 2.595-3.845 4.283-6.846 1.71-3.001 3.105-5.262 4.19-6.784 1.083-1.521 2.063-2.282 2.938-2.282.375 0 .687.24.937.719.25.458.47 1.052.658 1.782.187.708.364 1.5.53 2.376.167.875.344 1.73.532 2.563.354 1.542.76 2.908 1.22 4.096.479 1.187 1.031 2.188 1.656 3 .625.813 1.344 1.428 2.157 1.845.834.417 1.782.625 2.845.625 1.96 0 3.856-.344 5.69-1.032 1.854-.708 3.855-1.709 6.002-3.001.159-.098.333-.23.514-.378.352 2.33 1.168 4.24 2.455 5.724 1.771 2.042 4.44 3.063 8.003 3.063h.22c1.541 0 3.167-.333 4.876-1 1.709-.667 3.439-1.542 5.19-2.626a45 45 0 005.157-3.813 65.996 65.996 0 008.94-9.129c.384-.473.741-.933 1.085-1.387-.018.265-.036.523-.053.793a58.575 58.575 0 00-.125 3.658c0 1.167.02 2.209.063 3.126.042.917.093 1.782.156 2.594.083.813.156 1.616.219 2.408a76.1 76.1 0 01.219 2.5c.042.542.114 1.063.218 1.563.125.5.324.95.595 1.345.27.376.636.678 1.094.907.48.23 1.084.343 1.813.343.396 0 .719-.156.969-.469.25-.312.448-.75.594-1.313.167-.563.302-1.219.406-1.97.125-.75.25-1.562.375-2.437.104-.605.24-1.219.407-1.844.188-.625.385-1.23.593-1.814.23-.604.459-1.177.688-1.72.23-.562.438-1.083.626-1.562.25-.626.572-1.292.968-2a32.61 32.61 0 011.282-2.158c.458-.73.917-1.418 1.376-2.064.479-.667.917-1.24 1.313-1.719a53.037 53.037 0 011.75-2.032 21.091 21.091 0 011.876-1.782c.625-.542 1.24-.979 1.844-1.312.605-.334 1.168-.501 1.689-.501.584 0 1.03.125 1.344.376.333.25.655.52.968.812.313.292.668.563 1.064.813.416.25 1 .374 1.75.374.48 0 .886-.197 1.22-.593.333-.417.5-.927.5-1.532 0-.666-.116-1.334-.345-2.001a4.8 4.8 0 00-1.094-1.781c-.479-.542-1.094-.97-1.844-1.282-.73-.334-1.594-.5-2.595-.5-.937 0-1.854.187-2.75.562-.896.354-1.761.834-2.595 1.439a19.905 19.905 0 00-2.376 2.094c-.75.792-1.46 1.605-2.126 2.438a48.909 48.909 0 00-1.876 2.501 143.26 143.26 0 00-1.531 2.313 23.462 23.462 0 00-1.25 2.157c-.375.75-.74 1.501-1.095 2.251-.333.73-.636 1.407-.907 2.032a17.44 17.44 0 01-.655 1.438 21.943 21.943 0 01-.062-.781v-1.063c0-.563.01-1.157.03-1.782l.063-1.751c.02-.563.042-1.053.063-1.47.02-.416.03-.698.03-.844.084-.708.24-1.53.469-2.469.25-.937.5-1.833.75-2.688.25-.854.47-1.605.657-2.251.208-.667.313-1.084.313-1.25 0-.459-.073-.844-.219-1.157a1.821 1.821 0 00-.532-.75 1.6 1.6 0 00-.75-.375 2.747 2.747 0 00-.813-.125c-.312 0-.656.114-1.031.344-.375.229-.74.541-1.095.937a8.143 8.143 0 00-.937 1.313c-.292.48-.532.98-.72 1.501-.104.313-.229.948-.375 1.907-.09.683-.182 1.47-.273 2.308-.067.058-.125.1-.195.161l-1.689 1.688c-.458.459-.895.886-1.312 1.282l-1.126 1.126c-.563.542-1.167 1.114-1.813 1.719-.625.604-1.26 1.209-1.907 1.813a67.063 67.063 0 01-1.844 1.72 35.767 35.767 0 01-1.657 1.406 122.24 122.24 0 01-3.126 2.345 23.18 23.18 0 01-3.438 2c-2.501 1.167-4.856 1.752-7.065 1.752-3.98 0-6.054-1.866-6.22-5.596a696.1 696.1 0 001.969-1.595 330.65 330.65 0 011.938-1.563c.625-.5 1.209-.98 1.75-1.438.542-.458 1.011-.875 1.407-1.25a93.432 93.432 0 003.157-3.064 21.004 21.004 0 002.313-2.845 12.37 12.37 0 001.439-2.875c.333-1 .5-2.106.5-3.314 0-.917-.136-1.72-.406-2.408-.271-.687-.699-1.406-1.282-2.157a3.326 3.326 0 00-.688-.625 3.286 3.286 0 00-.812-.5 4.53 4.53 0 00-.814-.344 2.348 2.348 0 00-.655-.125zm-1.821 5.067c.48 0 .885.239 1.218.718.334.459.5 1.001.5 1.626 0 .667-.124 1.334-.375 2a9.509 9.509 0 01-1 1.939 13.754 13.754 0 01-1.344 1.781c-.48.563-.97 1.095-1.47 1.595-.729.73-1.552 1.51-2.469 2.344-.896.834-2 1.783-3.313 2.846.354-2.668.98-5.086 1.875-7.254.897-2.188 1.98-4.052 3.251-5.595.626-.75 1.209-1.272 1.75-1.563.563-.292 1.023-.437 1.377-.437zm-380.26.397c.48 0 .886.24 1.22.72.333.458.5 1 .5 1.625 0 .667-.125 1.333-.375 2a9.512 9.512 0 01-1 1.94 13.752 13.752 0 01-1.344 1.78 27.15 27.15 0 01-1.47 1.594 72.22 72.22 0 01-2.47 2.345 64.775 64.775 0 01-3.314 2.844c.355-2.667.98-5.085 1.877-7.252.896-2.189 1.979-4.053 3.25-5.595.625-.75 1.209-1.272 1.75-1.564.564-.291 1.022-.437 1.376-.437zm135.94.558c3.273.025 7.035.825 9.816 2.728a27416.06 27416.06 0 01-.337 37.72 50.671 50.671 0 01-9.475-2.042c-9.476-2.89-18.077-11.336-18.158-21.69-.028-8.897 7.882-16.516 16.654-16.714.283-.006.568-.005.852.005.214-.005.43-.007.648-.005zm-51.44 2.005c.605 0 1.137.344 1.595 1.032.48.688.72 1.813.72 3.376 0 .792-.136 1.656-.407 2.594-.27.917-.626 1.856-1.063 2.814a30.095 30.095 0 01-1.47 2.813 38.467 38.467 0 01-1.562 2.532c-.48.73-1.094 1.501-1.844 2.314a32.93 32.93 0 01-2.313 2.22 20.02 20.02 0 01-2.189 1.72c-.688.437-1.208.655-1.563.655-1.042 0-1.75-.291-2.126-.875-.375-.604-.562-1.396-.562-2.376 0-.666.114-1.417.343-2.251.23-.854.532-1.74.907-2.657.396-.938.845-1.897 1.345-2.876.5-.98 1.02-1.938 1.563-2.876.562-.938 1.115-1.834 1.657-2.688a45.82 45.82 0 011.594-2.282 7.46 7.46 0 01.968-1.094 9.247 9.247 0 011.313-1.032c.48-.312.98-.562 1.502-.75a4.417 4.417 0 011.593-.313zm127.8 1.729c.46 0 .95.104 1.47.312.521.188 1.01.438 1.47.751.479.313.895.666 1.25 1.062.375.396.625.802.75 1.219a26.099 26.099 0 01-.407 4.22 22.52 22.52 0 01-1.03 4.002 19.42 19.42 0 01-1.69 3.5 12.835 12.835 0 01-2.312 2.815 10.43 10.43 0 01-2.877 1.844c-1.063.438-2.219.656-3.47.656-.478 0-.917-.093-1.313-.281a3.85 3.85 0 01-1.031-.781 3.885 3.885 0 01-.688-1.125 4.23 4.23 0 01-.219-1.345c0-1.042.167-2.271.5-3.689a33.18 33.18 0 011.314-4.251 27.363 27.363 0 011.938-4.001c.75-1.25 1.531-2.22 2.344-2.908.27-.208.563-.427.876-.656a7.22 7.22 0 01.968-.657 6.11 6.11 0 011.063-.5c.355-.124.72-.187 1.095-.187z"/></svg>
