<svg xmlns="http://www.w3.org/2000/svg" width="600" height="128" viewBox="0 0 600 128"><path fill="#f2f2f2" d="M302.244 0c-9.78-.016-20.754 4.886-23.81 14.8-2.668 7.515-.398 16.032 4.984 21.762 2.678 3.236 6 5.622 9.647 7.451l-1.413 10.936c-6.629-4.003-15.474-4.474-22.58-1.521-9.965 4.114-15.928 15.838-13.076 26.3 2.588 11.526 12.543 19.948 23.488 23.366 1.86.628 3.766 1.16 5.7 1.604-.414 3.154-.823 6.31-1.238 9.463-.675 3.772-5.17 10.11-9.252 6.822-2.59-2.84-6.905-8.16-10.783-4.084-1.777 1.887-.936 2.252-1.886 4.741 2.114 5.523 6.77 5.757 11.764 6.305 8.214.76 15.263-6.52 15.847-14.418.34-2.611.676-5.224 1.015-7.835 13.963 1.866 28.744-1.176 39.466-10.595 9.603-8.123 13.597-23.298 6.548-34.287-6.828-10.578-18.67-14.458-30.439-17.225a27.723 27.723 0 01-7.208-2.47c1.596-12.337 3.191-24.675 4.788-37.012 3.325.315 6.534 1.53 9.32 3.867 4.506 3.957-3.366 10.972 2.852 13.61 5.462 1.333 4.983-7.317 5.074-10.798C319.728 2.284 309.506.091 302.244 0zM80.825 2.653c-2.289.014-3.978 3.064-4.533 3.05C69.475 3.518 61.4 4.546 56.274 9.888c-5.287 4.48-6.813 12.622-3.432 18.446 2.027 4.264 7.404 6.215 11.565 7.835-12.47 2.028-25.369 5.76-35.062 14.233-8.617 7.684-12.154 20.395-10.24 31.23 1.981 11.834 13.31 21.538 24.657 24.975 12.45 3.869 26.532 3.5 38.415-2.075 9.217-4.921 18.022-12.935 19.995-23.625 1.628-9.974-5.995-18.602-14.183-23.089-9.6-5.377-21.509-3.98-31.137.565-4.432 2.103-10.124 2.422-13.316 6.52-4.074 5.403 5.178 10.18 8.421 4.929 5.586-6.836 14.682-10 23.327-9.792 8.595.504 14.382 5.203 17.897 13.116 2.783 7.513-1.696 15.26-7.111 19.979-5.761 5.494-11.683 9.072-19.584 9.644-11.542 1.071-24.69-.36-33.154-9.132-7.984-8.429-8.92-21.702-4.999-32.202 4.337-9.34 14.63-13.506 23.782-16.59 9.353-2.776 19.19-4.28 28.941-4.053 4.802.527 9.69 2.466 14.515 1.418 5.934-4.45-3.268-8.158-7.419-7.155-4.68-.108-9.396-.003-13.888-1.57-5.398-1.574-11.21-3.343-15.229-7.462-3.246-4.648-2.223-12.558 2.854-15.028 5.11-3.173 12.585-.604 17.56 2.212l3.303 11.091c3.21-.961 6.853-2.646 7.216-6.455 1.605-6.559-7.412-7.14-6.407-13.286l-.453-.818-.608-.547c-.586-.395-1.146-.553-1.675-.55zm217.369 1.721c-1.446 11.141-2.888 22.282-4.326 33.424a29.276 29.276 0 01-7.842-9.726c-3.759-7.434-1.78-18.76 6.221-21.777a24.89 24.89 0 015.947-1.92zM40.597 11.862a2.282 2.282 0 00-2.282 2.282 2.282 2.282 0 002.282 2.282 2.282 2.282 0 002.281-2.282 2.282 2.282 0 00-2.281-2.282zm0 11.736a2.282 2.282 0 00-2.282 2.281 2.282 2.282 0 002.282 2.282 2.282 2.282 0 002.281-2.282 2.282 2.282 0 00-2.281-2.281zm73.312 16.164c-.446 0-.892.19-1.338.573-.425.361-.829.828-1.211 1.402a11.498 11.498 0 00-1.02 1.816c-.297.638-.53 1.232-.7 1.784-.17.595-.351 1.275-.542 2.04-.17.743-.351 1.54-.542 2.389-.192.828-.383 1.668-.574 2.517-.17.85-.329 1.668-.478 2.454-.17.935-.35 1.986-.541 3.154a198.432 198.432 0 00-1.116 7.647c-.17 1.338-.329 2.656-.477 3.951a139.572 139.572 0 00-.319 3.728 45.584 45.584 0 00-.128 3.218c0 2.358.235 4.323.702 5.895.488 1.55 1.104 2.804 1.848 3.76.743.934 1.56 1.603 2.453 2.007.913.382 1.795.573 2.645.573 1.933 0 4.12-.616 6.563-1.848 2.464-1.253 5.31-3.112 8.54-5.576.43-.322.86-.667 1.29-1.023.4 2.117 1.2 3.872 2.405 5.26 1.806 2.082 4.525 3.124 8.157 3.124h.223c1.572 0 3.229-.34 4.97-1.02 1.742-.68 3.506-1.572 5.29-2.676a45.845 45.845 0 005.257-3.888 67.26 67.26 0 004.907-4.556 64.303 64.303 0 004.206-4.747c.048-.059.09-.115.137-.173a114.41 114.41 0 00-.296 2.212c-.255 2.294-.383 4.004-.383 5.13 0 4.248.935 6.574 2.804 6.977.553-.17 1.19-.562 1.912-1.178a25.579 25.579 0 002.198-2.135 43.515 43.515 0 002.23-2.55c.723-.892 1.35-1.71 1.881-2.453a337.478 337.478 0 012.836-3.95 76.53 76.53 0 012.134-2.805c.638-.765 1.19-1.38 1.657-1.848.468-.467.892-.828 1.275-1.083.403-.255.786-.425 1.147-.51a4.994 4.994 0 011.147-.127c.51 0 .924.18 1.242.542.319.34.584.839.797 1.497.234.637.435 1.434.605 2.39.17.934.35 1.997.542 3.186.149.956.329 1.922.541 2.9.234.977.5 1.9.797 2.771.319.871.68 1.668 1.084 2.39.424.701.913 1.275 1.465 1.721 1.104.892 2.538 1.338 4.302 1.338.913 0 1.752-.095 2.517-.287a12.806 12.806 0 002.198-.764 15.359 15.359 0 002.071-1.147c.701-.446 1.434-.924 2.199-1.434a35.092 35.092 0 002.931-2.199 41.958 41.958 0 002.115-1.88 19.87 19.87 0 00-.299 1.466 18.94 18.94 0 00-.19 2.613c0 .828.137 1.614.413 2.358a6.903 6.903 0 001.116 1.975 5.942 5.942 0 001.656 1.37 4.15 4.15 0 001.976.51c1.02 0 2.188-.33 3.505-.988 1.338-.68 2.687-1.55 4.046-2.613a37.306 37.306 0 003.983-3.632c1.296-1.338 2.411-2.687 3.346-4.046a34.23 34.23 0 001.05 4.173c.447 1.317 1 2.475 1.658 3.474.68.977 1.476 1.752 2.39 2.326.934.573 2.039.86 3.313.86.977 0 1.922-.181 2.836-.542a11.498 11.498 0 002.517-1.37 13.82 13.82 0 002.103-1.88c.638-.7 1.147-1.38 1.53-2.039.297-.446.51-.882.637-1.306.148-.446.223-.84.223-1.18 0-.255-.128-.498-.383-.732-.233-.234-.498-.35-.796-.35-.17 0-.34.116-.51.35-.17.234-.372.5-.605.797-.808 1.083-1.732 1.9-2.772 2.453-1.02.552-2.337.829-3.95.829-.68 0-1.329-.16-1.945-.479-.595-.318-1.115-.892-1.56-1.72-.447-.85-.798-1.997-1.053-3.441-.255-1.445-.382-3.303-.382-5.576 0-.807.074-1.7.223-2.677.15-.977.308-1.911.478-2.803.191-.914.361-1.71.51-2.39.149-.68.223-1.126.223-1.339 0-.424-.053-.732-.16-.924a1.59 1.59 0 00-.35-.541 60.49 60.49 0 00-.414-.478c-.127-.192-.234-.478-.319-.86a3.658 3.658 0 00-.446-.988 4.325 4.325 0 00-.732-.892 4.104 4.104 0 00-.86-.67c-.298-.17-.575-.254-.83-.254-.17 0-.34.042-.51.127-.17.085-.339.18-.509.287l-.51.255c-.17.063-.34.095-.51.095-.17 0-.382-.032-.637-.095a16.1 16.1 0 00-.764-.255 11.2 11.2 0 00-.765-.287 1.881 1.881 0 00-.638-.127c-.68 0-1.571.329-2.676.988-1.083.637-2.23 1.518-3.441 2.644-1.21 1.105-2.4 2.4-3.569 3.887a28.056 28.056 0 00-2.324 3.399c-.128.142-.25.272-.384.425-.552.658-1.126 1.348-1.72 2.07a19.756 19.756 0 01-1.593 1.753 83.498 83.498 0 01-3.665 3.346 38.844 38.844 0 01-3.409 2.676c-1.105.743-2.156 1.328-3.154 1.753-.999.424-1.955.637-2.868.637-1.19 0-2.103-.287-2.74-.86-.637-.574-1.126-1.318-1.466-2.231-.34-.935-.574-1.986-.7-3.154a220.467 220.467 0 00-.351-3.537 35.903 35.903 0 00-.606-3.855c-.234-1.169-.573-2.167-1.02-2.995-.445-.85-1.04-1.508-1.784-1.976-.722-.488-1.635-.733-2.74-.733-1.04 0-1.997.181-2.868.542-.85.34-1.657.817-2.421 1.433a17.072 17.072 0 00-2.23 2.104 59.048 59.048 0 00-2.135 2.612c-.977 1.253-1.89 2.4-2.74 3.442a688.049 688.049 0 01-2.295 2.867c-1.359 1.72-2.336 2.613-2.931 2.676a3.904 3.904 0 01-.19-1.178c0-.552.041-1.168.126-1.848.107-.701.223-1.413.35-2.135.15-.722.298-1.434.447-2.135.17-.7.319-1.338.446-1.912a27 27 0 01.51-1.848c.17-.552.33-1.062.478-1.529.149-.467.265-.924.35-1.37a7.66 7.66 0 00.128-1.434c0-.828-.138-1.476-.414-1.944-.255-.467-.553-.7-.893-.7-.276 0-.552.02-.828.063a2.09 2.09 0 00-.765.223c-.233.106-.467.287-.7.542-.234.234-.457.563-.67.988a21.456 21.456 0 00-1.178 2.995 46.645 46.645 0 00-.74 2.81l-1.523 1.523c-.467.467-.913.903-1.338 1.307l-1.147 1.147c-.574.552-1.19 1.136-1.848 1.752-.638.616-1.286 1.232-1.944 1.848-.637.616-1.264 1.2-1.88 1.753-.616.552-1.179 1.03-1.689 1.433-1.04.807-2.102 1.604-3.186 2.39a23.627 23.627 0 01-3.505 2.039c-2.549 1.19-4.949 1.784-7.2 1.784-4.058 0-6.171-1.901-6.341-5.703.658-.531 1.327-1.073 2.007-1.625.68-.552 1.338-1.084 1.976-1.593.637-.51 1.232-.999 1.784-1.466.552-.467 1.03-.892 1.434-1.274a95.081 95.081 0 003.218-3.123c.935-.977 1.72-1.944 2.358-2.9a12.61 12.61 0 001.465-2.931c.34-1.02.51-2.145.51-3.377 0-.935-.138-1.753-.414-2.454-.276-.7-.712-1.433-1.307-2.198a3.39 3.39 0 00-.7-.637 3.35 3.35 0 00-.829-.51 4.608 4.608 0 00-.828-.35 2.398 2.398 0 00-.67-.128c-1.146 0-2.368.318-3.664.956-1.295.616-2.527 1.508-3.696 2.676-1.55 1.593-2.835 3.25-3.855 4.97a28.538 28.538 0 00-2.39 5.13 27.935 27.935 0 00-1.21 5.035 34.49 34.49 0 00-.34 4.135 19.48 19.48 0 01-.553.453 100.346 100.346 0 01-4.142 3.059 37.98 37.98 0 01-3.505 2.134c-1.062.574-2.06 1-2.995 1.275a9.544 9.544 0 01-2.708.415 4.673 4.673 0 01-1.593-.287c-.53-.213-1.009-.616-1.434-1.211-.425-.595-.775-1.413-1.052-2.454-.254-1.062-.382-2.442-.382-4.142 0-.807.021-1.689.064-2.644.042-.956.096-1.933.16-2.932l.255-2.995c.106-1.02.212-1.975.318-2.867a46.877 46.877 0 01.701-4.334c.319-1.274.723-2.729 1.211-4.364.489-1.636.967-3.261 1.434-4.876a79.79 79.79 0 001.242-4.556c.34-1.444.51-2.602.51-3.473 0-.382-.03-.733-.095-1.052a1.789 1.789 0 00-.319-.828 1.558 1.558 0 00-.7-.573c-.298-.128-.691-.191-1.18-.191zm184.445 6.48c3.472 1.228 7.085 2.12 10.614 2.879 9.379 2.94 18.321 7.345 22.943 16.61 4.245 9.708-1.033 20.83-9.446 26.57-9.307 6.712-20.291 9.11-31.09 7.817l2.617-20.2c5.032-5.114 7.878-13.504 3.37-19.83a19.032 19.032 0 00-.688-.866l1.68-12.98zm233.052 6.656c-1.147 0-2.368.319-3.664.956-1.295.616-2.527 1.508-3.696 2.676-1.55 1.593-2.836 3.25-3.855 4.97a28.549 28.549 0 00-2.39 5.13 27.935 27.935 0 00-1.21 5.035 35.071 35.071 0 00-.332 3.75l-.338.169a31.783 31.783 0 01-3.186 1.593c-.977.404-1.912.733-2.804.988a20.48 20.48 0 01-2.58.51c-.808.106-1.605.159-2.39.159-1.254 0-2.263-.69-3.027-2.071-.765-1.381-1.477-3.473-2.135-6.277-.404-1.72-.744-3.229-1.02-4.524-.255-1.296-.563-2.369-.924-3.219-.34-.87-.775-1.519-1.306-1.943-.531-.446-1.275-.67-2.23-.67-.914 0-1.785.288-2.613.861a11.656 11.656 0 00-2.326 2.166 24.86 24.86 0 00-1.976 2.772 65.153 65.153 0 00-1.625 2.709c-.17.318-.403.754-.7 1.306-.277.553-.585 1.158-.925 1.817-.34.637-.7 1.295-1.083 1.975-.361.68-.723 1.296-1.084 1.848-.34.531-.679.977-1.019 1.338-.318.34-.595.51-.829.51-.297 0-.563-.382-.796-1.147a37.555 37.555 0 01-.638-2.9 726.17 726.17 0 01-.605-3.695 74.334 74.334 0 00-.605-3.601 18.744 18.744 0 00-.478-1.88 8.447 8.447 0 00-.7-1.657 3.896 3.896 0 00-.989-1.179 2.117 2.117 0 00-1.338-.446c-2.06 0-3.983 1.01-5.767 3.027-.892 1.02-1.859 2.252-2.9 3.696a109.4 109.4 0 00-3.313 4.939c-.573.935-1.147 1.837-1.72 2.708a96.78 96.78 0 01-1.562 2.39c-.488.722-.945 1.349-1.37 1.88-.404.53-.744.934-1.02 1.21 0-.212.032-.541.096-.987.064-.467.138-.988.223-1.561.107-.595.212-1.211.319-1.848.106-.659.212-1.275.319-1.848.19-.956.392-1.923.605-2.9.212-.999.403-1.976.573-2.932.191-.977.34-1.91.446-2.803.128-.892.191-1.72.191-2.485 0-2.91-1.061-4.366-3.186-4.366-.53 0-.945.18-1.243.542-.297.34-.445.764-.445 1.274a30.02 30.02 0 01-.319 4.238c-.05.349-.105.708-.163 1.075a2.09 2.09 0 00-.187.168 283.467 283.467 0 01-4.429 4.397 113.385 113.385 0 01-4.142 3.887c-2.719 2.4-4.8 3.6-6.245 3.6-1.317 0-2.506-.658-3.568-1.975a17.14 17.14 0 01-1.402-2.007 21.769 21.769 0 01-1.02-2.135 98.907 98.907 0 01-.956-2.421c-.319-.914-.658-1.923-1.02-3.028a33.828 33.828 0 00-.923-2.389c-.276-.68-.553-1.232-.829-1.657-.51-.87-1.402-1.306-2.676-1.306-1.38 0-2.783.796-4.206 2.39-1.38 1.486-2.826 3.526-4.334 6.117-.127.212-.371.626-.732 1.242-.34.616-.712 1.275-1.116 1.976l-1.115 1.943-.637 1.116c-.956 1.678-1.635 2.517-2.039 2.517-.276 0-.552-1.476-.829-4.429a68.617 68.617 0 00-.541-4.27 59.258 59.258 0 00-.67-3.823c-.488-2.4-1.305-4.036-2.452-4.907-.234-.17-.585-.255-1.052-.255-2.06 0-3.983 1.01-5.767 3.027-.893 1.02-1.849 2.252-2.868 3.696a128.668 128.668 0 00-3.346 4.939c-1.168 1.87-2.187 3.399-3.058 4.588-.871 1.19-1.593 2.06-2.167 2.613 0-.829.192-2.41.574-4.747.191-.956.382-1.955.573-2.995.212-1.041.403-2.072.573-3.091.192-1.041.34-2.03.447-2.964.106-.956.16-1.816.16-2.58 0-2.91-1.063-4.366-3.187-4.366-.531 0-.945.18-1.243.542-.297.34-.446.765-.446 1.274v.061c-.435.125-.962.28-1.624.481-.7.191-1.465.404-2.294.638-.807.233-1.582.456-2.326.668a473.678 473.678 0 00-2.963.797c-.552.106-1.158.202-1.816.287-.658.085-1.328.16-2.007.223-.68.042-1.35.074-2.008.096-.658.02-1.274.031-1.848.031-.51 0-1.094-.255-1.752-.764a45.364 45.364 0 01-1.944-1.721 33.015 33.015 0 00-1.848-1.72c-.595-.532-1.094-.797-1.497-.797-.319 0-.606.043-.86.128a2.094 2.094 0 01-.638.127.313.313 0 01-.287-.16 5.25 5.25 0 01-.446-.573 3.557 3.557 0 00-.446-.542 1.662 1.662 0 00-.574-.414c-.212-.106-.498-.16-.86-.16-1.083 0-2.166.277-3.25.83-1.083.551-2.124 1.284-3.122 2.197a25.546 25.546 0 00-2.868 3.123 35.484 35.484 0 00-2.485 3.537 36.528 36.528 0 00-1.944 3.505c-.552 1.147-.977 2.167-1.274 3.059-.106.318-.212.7-.318 1.147-.107.446-.213.913-.32 1.402-.084.488-.159.966-.222 1.433-.043.468-.064.861-.064 1.18 0 1.232.116 2.41.35 3.536.255 1.126.616 2.124 1.083 2.995.468.85 1.041 1.53 1.721 2.04.68.509 1.455.764 2.326.764 1.38 0 2.708-.106 3.983-.319a17.481 17.481 0 003.855-1.178 25.469 25.469 0 003.154-1.657 18.847 18.847 0 002.454-1.817 14.36 14.36 0 001.975-2.134 24.198 24.198 0 001.721-2.55c.212-.34.414-.764.605-1.274.191-.53.361-1.072.51-1.625.17-.573.298-1.136.383-1.689.106-.552.158-1.02.158-1.401 0-.871-.074-1.71-.222-2.518a45.562 45.562 0 00-.51-2.453c.191.17.488.34.892.51a19.911 19.911 0 002.708.732c.446.085.797.128 1.051.128.638 0 1.424-.032 2.358-.095.935-.085 1.891-.192 2.868-.32a48.566 48.566 0 002.804-.445c.914-.191 1.646-.403 2.199-.637.297-.128.668-.319 1.115-.574.467-.276.956-.584 1.466-.924.51-.36 1.019-.743 1.529-1.147.403-.336.764-.673 1.101-1.01-.12.888-.269 1.882-.464 3.05-.17.998-.456 2.527-.86 4.588-.191 1.04-.361 1.986-.51 2.835-.127.829-.234 1.561-.319 2.199a28.663 28.663 0 00-.19 1.943 30.808 30.808 0 00-.065 2.008c0 1.975.244 3.844.733 5.607.51 1.657 1.572 2.486 3.186 2.486.871 0 1.615-.446 2.231-1.338.319-.447.68-.988 1.083-1.625.425-.659.881-1.435 1.37-2.327.319-.53.627-1.051.924-1.56.297-.51.605-1.041.924-1.594 1.02-1.72 2.081-3.441 3.186-5.162a51.888 51.888 0 013.888-5.225c1.444-1.72 2.538-2.602 3.281-2.645.808.765 1.254 1.795 1.339 3.091.042.637.085 1.53.127 2.676.042 1.126.085 2.518.128 4.175.106 3.292.393 5.639.86 7.041.51 1.38 1.497 2.071 2.963 2.071.977 0 2.06-.786 3.25-2.358 1.19-1.593 2.644-3.93 4.365-7.01 1.742-3.058 3.165-5.363 4.27-6.914 1.104-1.55 2.102-2.326 2.995-2.326.616 0 1.348.999 2.198 2.995.446 1.02.882 2.008 1.307 2.964.424.956.839 1.911 1.242 2.867a26.3 26.3 0 002.868 5.035c1.105 1.465 2.347 2.198 3.728 2.198 1.04 0 2.379-.435 4.015-1.306.807-.446 1.55-.892 2.23-1.338.68-.468 1.296-.935 1.848-1.402a41.579 41.579 0 004.493-4.398c1.234-1.397 2.484-2.985 3.75-4.74-.15.817-.303 1.646-.469 2.51-.17.978-.33 1.954-.478 2.931a71.056 71.056 0 00-.318 2.9 30.647 30.647 0 00-.127 2.708c0 .51.01.967.032 1.37.042.383.085.744.127 1.084.064.34.138.68.223 1.02.085.34.191.722.319 1.146.51 1.657 1.572 2.486 3.186 2.486.87 0 1.615-.446 2.23-1.338.277-.383.595-.872.956-1.467.382-.594.765-1.22 1.147-1.879.404-.68.797-1.349 1.18-2.007.382-.659.722-1.243 1.02-1.753.594-1.02 1.262-2.145 2.006-3.377a64.802 64.802 0 012.454-3.665 36.57 36.57 0 012.772-3.409c.998-1.062 2.039-1.922 3.122-2.58.276.254.542.615.797 1.083.276.446.51 1.02.7 1.72.192.701.351 1.55.479 2.55.127.976.202 2.113.223 3.408.106 3.293.392 5.64.86 7.042.51 1.381 1.498 2.071 2.963 2.071.977 0 2.06-.796 3.25-2.39 1.19-1.593 2.645-3.919 4.365-6.977 1.742-3.06 3.165-5.364 4.27-6.914 1.104-1.551 2.103-2.326 2.995-2.326.382 0 .701.244.956.732.255.467.477 1.073.669 1.817.19.722.372 1.529.542 2.421.17.892.35 1.763.541 2.613.361 1.572.776 2.963 1.243 4.174.489 1.21 1.051 2.23 1.689 3.059.637.828 1.37 1.454 2.198 1.88.85.424 1.816.637 2.9.637 1.997 0 3.93-.35 5.798-1.052 1.89-.722 3.93-1.742 6.118-3.059.163-.1.34-.233.524-.385.36 2.376 1.191 4.322 2.503 5.834 1.806 2.082 4.525 3.122 8.157 3.122h.223c1.572 0 3.229-.34 4.97-1.02 1.742-.679 3.506-1.57 5.29-2.675a45.844 45.844 0 005.257-3.888 67.25 67.25 0 004.907-4.556 64.3 64.3 0 004.205-4.748c.391-.482.756-.95 1.107-1.413-.018.27-.037.533-.054.808a60.169 60.169 0 00-.128 3.728c0 1.19.02 2.251.064 3.186.042.935.096 1.816.16 2.645.084.828.158 1.646.222 2.453.085.807.16 1.657.223 2.55.042.551.117 1.083.223 1.592.128.51.33.967.606 1.37a3 3 0 001.115.925c.489.233 1.105.35 1.848.35.404 0 .733-.16.988-.478.255-.319.456-.765.605-1.338.17-.574.308-1.243.414-2.008.128-.765.255-1.593.382-2.485.107-.616.245-1.243.415-1.88a37.77 37.77 0 01.605-1.848c.234-.616.467-1.2.701-1.752.234-.574.446-1.105.637-1.594.255-.637.584-1.316.988-2.039a33.24 33.24 0 011.307-2.198c.467-.743.934-1.445 1.401-2.103.489-.68.935-1.264 1.338-1.752a54.088 54.088 0 011.785-2.071 21.51 21.51 0 011.912-1.817 11.05 11.05 0 011.88-1.338c.615-.34 1.189-.51 1.72-.51.595 0 1.052.128 1.37.383.34.255.67.53.988.828.319.297.68.574 1.083.829.425.255 1.02.382 1.785.382.488 0 .902-.202 1.242-.605.34-.425.51-.946.51-1.562 0-.68-.117-1.36-.35-2.04a4.891 4.891 0 00-1.116-1.815c-.488-.552-1.115-.988-1.88-1.307-.743-.34-1.625-.51-2.644-.51-.956 0-1.89.192-2.804.574-.913.361-1.795.85-2.644 1.466a20.275 20.275 0 00-2.422 2.135 39.413 39.413 0 00-2.167 2.485c-.68.85-1.317 1.7-1.911 2.549a146.29 146.29 0 00-1.562 2.358c-.446.68-.87 1.412-1.274 2.198-.382.765-.755 1.53-1.116 2.294-.34.744-.648 1.434-.924 2.071a17.847 17.847 0 01-.668 1.466 24.73 24.73 0 01-.064-.796v-1.084c0-.573.01-1.179.032-1.816.02-.637.043-1.232.064-1.784.02-.574.042-1.073.064-1.498.02-.425.032-.712.032-.86.085-.723.244-1.561.477-2.517.255-.956.51-1.87.765-2.74l.67-2.295c.212-.68.318-1.104.318-1.274 0-.467-.074-.86-.223-1.179a1.856 1.856 0 00-.542-.765 1.63 1.63 0 00-.764-.382 2.801 2.801 0 00-.829-.127c-.318 0-.67.117-1.052.35a5.045 5.045 0 00-1.115.956c-.34.382-.658.828-.956 1.338a8.422 8.422 0 00-.732 1.53c-.106.318-.234.966-.383 1.943a99.77 99.77 0 00-.278 2.353c-.069.058-.128.101-.2.164l-1.72 1.72c-.467.468-.913.904-1.338 1.307l-1.147 1.147c-.574.553-1.19 1.137-1.848 1.753-.637.616-1.285 1.232-1.944 1.848-.637.616-1.264 1.2-1.88 1.752a36.55 36.55 0 01-1.689 1.434c-1.04.807-2.102 1.604-3.186 2.39a23.628 23.628 0 01-3.505 2.04c-2.549 1.189-4.949 1.783-7.2 1.783-4.058 0-6.171-1.9-6.341-5.703.658-.53 1.328-1.073 2.007-1.625.68-.553 1.338-1.083 1.976-1.593.637-.51 1.232-.999 1.784-1.466.552-.467 1.03-.892 1.434-1.275a94.997 94.997 0 003.218-3.122c.935-.977 1.72-1.943 2.357-2.9a12.613 12.613 0 001.466-2.93c.34-1.02.51-2.146.51-3.378 0-.935-.138-1.753-.414-2.454-.276-.7-.712-1.434-1.306-2.198a3.39 3.39 0 00-.701-.638 3.353 3.353 0 00-.83-.51 4.6 4.6 0 00-.827-.35 2.4 2.4 0 00-.67-.127zm-253.49 4.12c.858-.02 1.722.027 2.584.148 3.49.288 7.568 1.528 10.356 3.933-1.64 12.682-3.289 25.364-4.946 38.043a51.732 51.732 0 01-8.91-2.988c-9.29-3.955-17.093-13.448-16.053-23.95.876-8.437 8.67-14.99 16.969-15.186zm251.642 1.042c.489 0 .903.244 1.243.732.34.468.51 1.02.51 1.657 0 .68-.128 1.36-.383 2.04a9.689 9.689 0 01-1.02 1.975c-.403.637-.86 1.242-1.369 1.816a27.716 27.716 0 01-1.498 1.625 73.393 73.393 0 01-2.517 2.39c-.913.85-2.04 1.816-3.378 2.899.362-2.719.999-5.183 1.912-7.392.913-2.23 2.018-4.131 3.314-5.703.637-.765 1.232-1.296 1.784-1.594.574-.297 1.041-.445 1.402-.445zm-387.578.404c.488 0 .902.245 1.242.733.34.468.51 1.02.51 1.657 0 .68-.128 1.36-.383 2.04a9.69 9.69 0 01-1.019 1.975c-.403.638-.86 1.243-1.37 1.816a27.7 27.7 0 01-1.497 1.625 73.392 73.392 0 01-2.518 2.39 66.002 66.002 0 01-3.377 2.9c.361-2.72.998-5.183 1.912-7.393.913-2.23 2.017-4.131 3.313-5.703.637-.765 1.232-1.296 1.784-1.593.574-.298 1.042-.447 1.403-.447zm86.124 2.614c.616 0 1.157.35 1.625 1.05.488.702.733 1.85.733 3.442 0 .807-.138 1.689-.414 2.645-.276.934-.638 1.89-1.084 2.867a30.701 30.701 0 01-1.497 2.868 39.239 39.239 0 01-1.594 2.58c-.488.744-1.114 1.53-1.879 2.359a33.592 33.592 0 01-2.358 2.262 20.408 20.408 0 01-2.23 1.752c-.701.446-1.233.67-1.594.67-1.062 0-1.784-.298-2.166-.893-.382-.616-.574-1.423-.574-2.421 0-.68.117-1.445.35-2.294.234-.871.542-1.774.925-2.709.403-.956.86-1.933 1.37-2.931.51-.998 1.04-1.976 1.593-2.932.573-.955 1.137-1.868 1.689-2.74a46.773 46.773 0 011.625-2.326 7.6 7.6 0 01.987-1.115c.404-.382.85-.732 1.338-1.051a7.359 7.359 0 011.53-.765 4.506 4.506 0 011.625-.318zm130.257 1.761c.468 0 .967.106 1.498.318a6.64 6.64 0 011.497.765c.489.319.914.68 1.275 1.083.382.404.637.819.765 1.243a26.55 26.55 0 01-.415 4.302 22.956 22.956 0 01-1.051 4.078 19.788 19.788 0 01-1.72 3.569 13.08 13.08 0 01-2.359 2.867 10.631 10.631 0 01-2.931 1.88c-1.083.446-2.262.67-3.537.67-.488 0-.934-.096-1.338-.288a3.925 3.925 0 01-1.052-.796 3.963 3.963 0 01-.7-1.147 4.306 4.306 0 01-.224-1.37c0-1.062.17-2.315.51-3.76.34-1.444.787-2.889 1.34-4.333a27.9 27.9 0 011.974-4.078c.765-1.275 1.561-2.263 2.39-2.964.276-.212.574-.436.892-.67a7.34 7.34 0 01.988-.668 6.228 6.228 0 011.083-.51 3.325 3.325 0 011.115-.19z"/></svg>
