<svg xmlns="http://www.w3.org/2000/svg" width="512" height="512" viewBox="0 0 512 512"><path fill="#f2f2f2" d="M255.098 1.465c-8.044.047-13.982 10.203-15.93 10.153-23.956-7.27-52.33-3.848-70.339 13.942-18.579 14.916-23.937 42.03-12.058 61.422 7.123 14.196 26.017 20.692 40.638 26.087-43.82 6.753-89.14 19.182-123.2 47.39-30.278 25.59-42.708 67.913-35.979 103.993 6.96 39.403 46.763 71.715 86.637 83.16 18.146 5.344 37.277 8.251 56.435 8.509 11.25 35.13 44.45 60.734 80.761 71.48a217.177 217.177 0 0020.027 5.345c-1.452 10.503-2.89 21.007-4.35 31.51-2.369 12.56-18.162 33.66-32.508 22.714-9.1-9.458-24.262-27.172-37.888-13.6-6.245 6.281-3.291 7.5-6.626 15.789 7.427 18.39 23.788 19.17 41.334 20.995 28.862 2.527 53.632-21.713 55.683-48.012 1.192-8.697 2.376-17.394 3.567-26.09 49.062 6.212 101-3.914 138.672-35.276 33.743-27.05 47.78-77.578 23.01-114.17-23.991-35.222-65.603-48.145-106.956-57.358-8.808-1.609-17.326-4.405-25.329-8.22 5.609-41.083 11.215-82.166 16.825-123.249 11.684 1.051 22.96 5.097 32.748 12.88 15.835 13.178-11.827 36.534 10.021 45.315 19.192 4.44 17.51-24.36 17.83-35.95-4.652-28.297-40.566-35.603-66.085-35.905-24.48-.038-51.084 8.243-68.248 24.94-14.112-.244-28.22-.622-41.748-5.095-18.97-5.24-39.385-11.128-53.508-24.846-11.407-15.477-7.815-41.813 10.023-50.04 17.956-10.563 44.222-2.01 61.7 7.365l11.612 36.933c11.28-3.202 24.076-8.812 25.35-21.495 5.642-21.838-26.042-23.772-22.511-44.238l-1.593-2.727-2.135-1.82c-2.057-1.315-4.025-1.842-5.882-1.831zM113.742 32.129a8.018 7.598 0 00-8.017 7.6 8.018 7.598 0 008.017 7.596 8.018 7.598 0 008.017-7.597 8.018 7.598 0 00-8.017-7.6zm-.17 39.077a8.018 7.598 0 00-7.847 7.598 8.018 7.598 0 008.017 7.597 8.018 7.598 0 008.017-7.597 8.018 7.598 0 00-8.017-7.598 8.018 7.598 0 00-.17 0zm214.233 27.68c-5.07 37.019-10.125 74.04-15.17 111.063-4.48-5.037-9.563-9.654-14.991-13.784a96.496 96.496 0 01-12.595-18.37c-7.12-13.345-8.369-30.45-3.614-44.963 8.503 1.391 17.017 2.126 25.475.385 14.455-10.275 3.345-19.354-9.69-22.847a38.807 38.807 0 019.69-5.091c6.737-2.966 13.781-5.149 20.895-6.393zm-78.325 29.537c2.143.003 4.285.028 6.427.076 1.397.145 2.797.33 4.199.53a56.819 56.819 0 00-1.732 4.574c-5.267 14.06-5.057 29.174-.507 43.103-28.72-7-60.35-1.593-87.009 10.332-15.572 7.001-35.571 8.062-46.786 21.71-14.314 17.988 18.193 33.897 29.59 16.412 19.625-22.76 51.588-33.3 81.963-32.605 17.349.963 31.436 6.545 42.63 16.108a89.69 89.69 0 005.789 5.574c5.688 6.152 10.494 13.513 14.468 21.99 3.738 9.565 3.737 19.242 1.258 28.429-22.605-10.847-51.084-11.57-74.29-2.43-30.387 11.889-50.17 42.86-48.324 73.607-32.668-.715-65.788-8.636-88.937-31.371-28.055-28.068-31.347-72.267-17.567-107.231 15.237-31.1 51.402-44.97 83.563-55.238 30.81-8.669 63.116-13.612 95.265-13.57zm79.388 110.045c12.047 4 24.566 6.918 36.796 9.413 32.954 9.793 64.376 24.462 80.615 55.309 14.916 32.327-3.63 69.364-33.19 88.474-32.703 22.352-71.302 30.334-109.249 26.028 3.07-22.42 6.135-44.84 9.2-67.26 17.683-17.03 27.683-44.967 11.844-66.032a63.806 63.806 0 00-1.683-2.03c3.142-6.413 5.514-13.19 6.905-20.334 1.408-8.174.838-16.075-1.238-23.568zm-70.049 35.701c2.268.035 4.542.2 6.814.502 8.605.673 18.232 2.909 26.596 6.948-5.021 8.066-11.635 15.299-18.705 21.136-20.243 18.293-41.047 30.209-68.81 32.114-2.623.231-5.27.425-7.934.582a60.508 60.508 0 01.149-10.708c3.08-28.093 30.466-49.912 59.624-50.566.755-.017 1.51-.02 2.266-.008zm39.538 40.398c-4.55 33.296-9.121 66.589-13.713 99.879a188.821 188.821 0 01-31.31-9.954c-22.679-9.15-42.823-27.2-51.79-49.093 20.163-1.742 39.976-6.55 58.303-14.697 13.661-6.912 27.057-15.662 38.51-26.135z"/></svg>