<svg xmlns="http://www.w3.org/2000/svg" width="512" height="512" viewBox="0 0 512 512"><path fill="#f2f2f2" d="M247.84 23.243c-7.095.044-12.331 9.496-14.049 9.45-21.128-6.767-46.151-3.582-62.033 12.974-16.385 13.882-21.11 39.116-10.635 57.164 6.282 13.211 22.945 19.255 35.84 24.275-38.646 6.285-78.615 17.853-108.65 44.105-26.703 23.814-37.665 63.202-31.73 96.78 6.137 36.67 41.241 66.74 76.406 77.392 21.969 6.827 45.575 9.388 68.631 7.145 13.568 30.923 44.917 51.156 77.492 57.629a183.7 183.7 0 0019.816 3.275c-.096 9.689-.18 19.378-.281 29.066-.671 11.855-12.138 33.024-25.922 24.43-9.025-7.774-24.28-22.535-34.693-8.553-4.766 6.465-2.044 7.276-4.037 15.287 8.557 16.205 22.969 15.193 38.535 15.022 25.552-.722 44.53-25.739 43.387-50.254.07-7.97.133-15.942.203-23.912 43.078.729 86.837-13.562 116.37-45.682 26.913-28.196 34.222-76.267 8.88-107.81-24.523-30.343-62.291-38.399-99.466-43.047-8.257-.693-16.363-2.62-24.072-5.63.318-38.38.635-76.76.955-115.14 11.237-.65 22.49 1.936 32.643 8.757 15.19 10.71-6.757 34.917 13.27 40.994 17.27 2.31 12.945-24.184 12.079-34.939-6.88-25.748-39.096-29.14-61.504-27.027a93.53 93.53 0 00-11.477 1.946l-2.065-.018v.531c-20.385 5.248-39.775 17.43-49.496 35.701-8.37-.471-16.667-1.528-24.726-4.34-16.729-4.876-34.734-10.354-47.19-23.12-10.06-14.403-6.892-38.915 8.84-46.57 15.836-9.831 39.002-1.87 54.416 6.855l10.238 34.369c9.95-2.98 21.235-8.199 22.36-20.002 4.975-20.323-22.97-22.125-19.856-41.172l-1.402-2.537-1.885-1.691c-1.815-1.225-3.55-1.718-5.187-1.707zM123.18 51.782a7.071 7.071 0 00-7.07 7.07 7.071 7.071 0 007.07 7.073 7.071 7.071 0 007.07-7.073 7.071 7.071 0 00-7.07-7.07zm0 36.365a7.071 7.071 0 00-7.07 7.072 7.071 7.071 0 007.07 7.07 7.071 7.071 0 007.07-7.07 7.071 7.071 0 00-7.07-7.072zm178.44 12.504c-.298 34.271-.583 68.541-.86 102.81-10.328-6.863-19.345-15.887-26.21-26.623-14.031-21.669-11.66-57.223 11.998-69.154 4.81-2.893 9.874-5.268 15.072-7.035zm-58.732 40.744c1.092 0 2.184.026 3.275.041-2.987 16.134.84 32.71 9.434 46.432-26.688-8.743-56.881-3.8-82.047 8.078-13.733 6.516-31.371 7.503-41.262 20.205-12.623 16.74 16.045 31.544 26.096 15.272 17.308-21.182 45.497-30.988 72.285-30.342 26.636 1.56 44.567 16.121 55.461 40.642a42.06 42.06 0 012.522 11.76c-19.213-4.984-40.787-2.332-57.982 7.07-25.741 13.998-40.063 45.018-34.945 73.547-33.794 1.99-70.687-3.622-95.055-28.877-24.743-26.12-27.646-67.252-15.493-99.79 13.438-28.943 45.332-41.852 73.695-51.407 27.172-8.067 55.663-12.67 84.016-12.63zm74.81 87.162c11.362 2.76 23.08 4.373 34.48 5.58 29.867 5.972 58.873 16.6 76.166 43.621 16.278 28.516 3.68 64.526-20.352 84.982-26.071 23.396-58.542 34.412-91.723 34.328.184-21.304.365-42.608.545-63.912 13.368-17.428 18.945-43.672 3.217-61.402a58.806 58.806 0 00-2.672-2.687l.338-40.51zm-53.275 39.736c.894-.02 1.79-.018 2.69.012 6.131-.148 12.944.583 19.406 2.414-3.961 12.812-12.7 24.442-22.426 32.916-15.445 14.728-31.264 25.009-51.104 28.664a59.473 59.473 0 01-1.172-11.215c-.085-28.098 24.897-52.166 52.605-52.791zm35.557 30.074c-.273 32.558-.57 65.116-.883 97.674a160.048 160.048 0 01-29.928-6.451c-20.503-6.251-39.706-20.742-49.854-39.764 11.272-2.373 22.268-5.974 32.715-10.875 18.23-9.733 35.932-23.377 47.95-40.584z"/></svg>